<mxfile host="app.diagrams.net" modified="2024-04-16T14:08:40.006Z" agent="Mozilla/5.0 (Windows NT 10.0; Win64; x64) AppleWebKit/537.36 (KHTML, like Gecko) Chrome/123.0.0.0 Safari/537.36" version="24.2.5" etag="nyFktN8oC0VPjbS0w2Md" type="github">
  <diagram name="Page-1" id="ifEFP0roQd2SGRHkQe1W">
    <mxGraphModel>
      <root>
        <mxCell id="0" />
        <mxCell id="1" parent="0" />
      </root>
    </mxGraphModel>
  </diagram>
</mxfile>
